<svg width="99" height="100" viewBox="0 0 99 100" fill="none" xmlns="http://www.w3.org/2000/svg">
<path d="M79.6582 0H19.3345C8.65636 0 0 8.65636 0 19.3345V79.6582C0 90.3364 8.65636 98.9927 19.3345 98.9927H79.6582C90.3364 98.9927 98.9927 90.3364 98.9927 79.6582V19.3345C98.9927 8.65636 90.3364 0 79.6582 0Z" fill="url(#paint0_linear)"/>
<path d="M73.5953 29.8835L98.9993 54.2604V79.6583C99.0512 84.5181 97.2248 89.2103 93.9012 92.7562C91.9913 94.7911 89.6728 96.3992 87.0977 97.4751C84.5227 98.5509 81.7493 99.0703 78.9595 98.999H72.1537L47.1333 73.5826L73.5953 29.8835Z" fill="url(#paint1_linear)"/>
<path d="M73.8669 53.1653C73.7311 55.0488 72.8653 56.8048 71.4539 58.0593L51.872 73.5764C51.1867 74.0881 50.3544 74.3645 49.4992 74.3645C48.644 74.3645 47.8117 74.0881 47.1265 73.5764L32.8963 62.1304L30.1802 60.0206L49.5333 46.1616L59.0242 39.3559L72.3573 29.8649C73.4895 29.4133 74.2443 30.0196 74.2443 31.4488L73.8669 53.1653Z" fill="white"/>
<path d="M26.8647 57.2364C25.8676 56.0411 25.2628 54.5678 25.1323 53.0168L24.7549 31.325C24.6868 29.6669 25.8129 29.0606 27.1678 30.0443L49.4721 46.2358L30.1809 60.0205C30.1809 60.0205 27.0874 57.4591 26.8647 57.2364Z" fill="white"/>
<path d="M30.1806 60.0205L27.9966 58.2881L47.7456 44.9921L49.4656 46.2357L30.1806 60.0205Z" fill="url(#paint2_linear)"/>
<defs>
<linearGradient id="paint0_linear" x1="-2.93266" y1="79.7634" x2="101.925" y2="19.2231" gradientUnits="userSpaceOnUse">
<stop stop-color="#F29034"/>
<stop offset="1" stop-color="#ED682A"/>
</linearGradient>
<linearGradient id="paint1_linear" x1="91.1912" y1="95.3239" x2="58.4556" y2="38.6258" gradientUnits="userSpaceOnUse">
<stop stop-color="#ED682A" stop-opacity="0"/>
<stop offset="1" stop-color="#AB3700" stop-opacity="0.6"/>
</linearGradient>
<linearGradient id="paint2_linear" x1="37.8835" y1="51.0987" x2="39.5725" y2="53.4189" gradientUnits="userSpaceOnUse">
<stop stop-color="white" stop-opacity="0"/>
<stop offset="1" stop-opacity="0.2"/>
</linearGradient>
</defs>
</svg>
