<svg width="236" height="236" viewBox="0 0 236 236" fill="none" xmlns="http://www.w3.org/2000/svg">
<g filter="url(#filter0_dd)">
<path d="M159.438 40H76.5625C61.8924 40 50 51.8924 50 66.5625V149.438C50 164.108 61.8924 176 76.5625 176H159.438C174.108 176 186 164.108 186 149.438V66.5625C186 51.8924 174.108 40 159.438 40Z" fill="white"/>
</g>
<path d="M186 149.437V140.538L151.643 106.181L146.45 111.4L132.204 97.154L84.85 144.448L116.436 176H159.438C171.176 176 186 167.126 186 149.437Z" fill="#E5E5E5" fill-opacity="0.6"/>
<path d="M134.515 96.3635L89.338 71.518C88.8375 71.202 88.2788 70.9895 87.6948 70.8932C87.1108 70.7968 86.5134 70.8185 85.938 70.957L122.93 108L134.515 96.3635Z" fill="url(#paint0_linear)"/>
<path d="M134.575 119.603L150.003 111.103C153.131 109.403 153.131 106.564 150.003 104.847L134.524 96.3467L122.93 108L134.575 119.603Z" fill="url(#paint1_linear)"/>
<path d="M85.921 70.9569C84.544 71.3819 83.6515 72.7759 83.6515 74.8839V141.116C83.6515 143.198 84.5015 144.567 85.8445 145.026L122.921 108L85.921 70.9569Z" fill="url(#paint2_linear)"/>
<path d="M85.8615 145.026C86.4471 145.18 87.0584 145.212 87.6567 145.118C88.255 145.024 88.8275 144.808 89.338 144.482L134.575 119.602L122.922 108L85.8615 145.026Z" fill="url(#paint3_linear)"/>
<defs>
<filter id="filter0_dd" x="0" y="0" width="236" height="236" filterUnits="userSpaceOnUse" color-interpolation-filters="sRGB">
<feFlood flood-opacity="0" result="BackgroundImageFix"/>
<feColorMatrix in="SourceAlpha" type="matrix" values="0 0 0 0 0 0 0 0 0 0 0 0 0 0 0 0 0 0 127 0"/>
<feOffset dy="10"/>
<feGaussianBlur stdDeviation="25"/>
<feColorMatrix type="matrix" values="0 0 0 0 0.733398 0 0 0 0 0.733398 0 0 0 0 0.733398 0 0 0 0.2 0"/>
<feBlend mode="normal" in2="BackgroundImageFix" result="effect1_dropShadow"/>
<feColorMatrix in="SourceAlpha" type="matrix" values="0 0 0 0 0 0 0 0 0 0 0 0 0 0 0 0 0 0 127 0"/>
<feOffset dy="4"/>
<feGaussianBlur stdDeviation="5"/>
<feColorMatrix type="matrix" values="0 0 0 0 0 0 0 0 0 0 0 0 0 0 0 0 0 0 0.1 0"/>
<feBlend mode="normal" in2="effect1_dropShadow" result="effect2_dropShadow"/>
<feBlend mode="normal" in="SourceGraphic" in2="effect2_dropShadow" result="shape"/>
</filter>
<linearGradient id="paint0_linear" x1="116.581" y1="110.132" x2="103.6" y2="53.7352" gradientUnits="userSpaceOnUse">
<stop stop-color="#D6FFA1"/>
<stop offset="0.33" stop-color="#93E2A7"/>
<stop offset="1" stop-color="#00A3B5"/>
</linearGradient>
<linearGradient id="paint1_linear" x1="114.958" y1="71.418" x2="148.174" y2="128.147" gradientUnits="userSpaceOnUse">
<stop stop-color="#FF177B"/>
<stop offset="0.67" stop-color="#FFA976"/>
<stop offset="1" stop-color="#FFEC73"/>
</linearGradient>
<linearGradient id="paint2_linear" x1="105.048" y1="131.538" x2="84.9698" y2="54.0791" gradientUnits="userSpaceOnUse">
<stop stop-color="#63FFD4"/>
<stop offset="0.49" stop-color="#32A0BA"/>
<stop offset="0.83" stop-color="#1262A9"/>
<stop offset="1" stop-color="#064AA2"/>
</linearGradient>
<linearGradient id="paint3_linear" x1="145.537" y1="126.463" x2="75.9475" y2="135.992" gradientUnits="userSpaceOnUse">
<stop stop-color="#FF4521"/>
<stop offset="0.34" stop-color="#D43E65"/>
<stop offset="0.79" stop-color="#9F36B9"/>
<stop offset="1" stop-color="#8A33DB"/>
</linearGradient>
</defs>
</svg>
