<svg width="25" height="24" viewBox="0 0 25 24" fill="none" xmlns="http://www.w3.org/2000/svg">
<path d="M12.9958 16.0357C15.2247 16.0357 17.0316 14.2289 17.0316 12C17.0316 9.77114 15.2247 7.96429 12.9958 7.96429C10.767 7.96429 8.96014 9.77114 8.96014 12C8.96014 14.2289 10.767 16.0357 12.9958 16.0357Z" fill="#333333"/>
<path d="M17.2566 3H8.73871C6.12085 3 3.99585 5.125 3.99585 7.74286V16.2571C3.99585 18.875 6.12085 21 8.73871 21H17.253C19.8709 21 21.9958 18.875 21.9958 16.2607V7.74286C21.9958 5.125 19.8708 3 17.2566 3ZM12.9958 17.4643C9.98156 17.4643 7.53156 15.0143 7.53156 12C7.53156 8.98571 9.98156 6.53571 12.9958 6.53571C16.0101 6.53571 18.4601 8.98571 18.4601 12C18.4601 15.0143 16.0101 17.4643 12.9958 17.4643ZM18.5316 7.37857C18.0173 7.37857 17.603 6.96429 17.603 6.45C17.603 5.93571 18.0173 5.52143 18.5316 5.52143C19.0458 5.52143 19.4601 5.93571 19.4601 6.45C19.4601 6.96429 19.0458 7.37857 18.5316 7.37857Z" fill="#333333"/>
</svg>
