<svg width="21" height="21" viewBox="0 0 21 21" fill="none" xmlns="http://www.w3.org/2000/svg">
<g clip-path="url(#clip0)">
<path d="M0.8667 10.6536C0.866701 7.45117 3.47256 4.84608 6.67406 4.84608L14.9705 4.84608C18.172 4.84608 20.7778 7.45118 20.7778 10.6536C20.7778 13.8558 18.1719 16.4609 14.9705 16.4609L6.67406 16.4609C3.47256 16.4609 0.8667 13.8558 0.8667 10.6536H0.8667ZM11.6518 10.6536C11.6518 12.4836 13.1402 13.9721 14.9705 13.9721C16.8005 13.9721 18.2889 12.4836 18.2889 10.6536C18.2889 8.82338 16.8005 7.33497 14.9705 7.33497C13.1402 7.33496 11.6518 8.82338 11.6518 10.6536Z" fill="white"/>
</g>
<defs>
<clipPath id="clip0">
<rect width="19.9111" height="19.9111" fill="white" transform="matrix(1 1.74846e-07 1.74846e-07 -1 0.866699 20.6221)"/>
</clipPath>
</defs>
</svg>
