<svg width="24" height="24" viewBox="0 0 24 24" fill="none" xmlns="http://www.w3.org/2000/svg">
<path d="M22.5014 5.07733C22.1558 5.23051 21.8004 5.3598 21.4374 5.46476C21.8672 4.97896 22.195 4.40734 22.395 3.78183C22.4399 3.64162 22.3934 3.48814 22.2781 3.39644C22.1629 3.30467 22.0028 3.29368 21.876 3.36879C21.105 3.8258 20.2731 4.15423 19.4008 4.34628C18.5222 3.48829 17.3288 3 16.0951 3C13.4909 3 11.3723 5.11718 11.3723 7.71953C11.3723 7.92449 11.3853 8.12832 11.4109 8.32931C8.17944 8.04577 5.17518 6.4585 3.11215 3.92955C3.03863 3.83941 2.92536 3.79083 2.8094 3.80012C2.69337 3.8092 2.58912 3.87459 2.5305 3.97508C2.11208 4.69258 1.89087 5.5132 1.89087 6.34815C1.89087 7.48535 2.29716 8.56434 3.01485 9.40744C2.79663 9.33191 2.58486 9.23751 2.38275 9.12539C2.27424 9.06503 2.14181 9.06596 2.03401 9.12773C1.92614 9.1895 1.85851 9.30311 1.85567 9.42729C1.85517 9.44822 1.85517 9.46914 1.85517 9.49034C1.85517 11.1878 2.76938 12.7161 4.16708 13.549C4.04701 13.5371 3.927 13.5197 3.80777 13.4969C3.68486 13.4734 3.55846 13.5165 3.47557 13.6102C3.39254 13.7038 3.36508 13.8343 3.40333 13.9534C3.92068 15.5676 5.25267 16.7549 6.86293 17.1168C5.52739 17.9528 4.0001 18.3906 2.3968 18.3906C2.06226 18.3906 1.7258 18.371 1.39651 18.332C1.23293 18.3126 1.07652 18.4091 1.02081 18.5646C0.965099 18.7201 1.02414 18.8935 1.16331 18.9827C3.223 20.3024 5.6046 21 8.0505 21C12.8588 21 15.8668 18.7341 17.5434 16.8332C19.6341 14.463 20.8332 11.3257 20.8332 8.22583C20.8332 8.09633 20.8312 7.96556 20.8272 7.8352C21.6521 7.21416 22.3622 6.46254 22.9401 5.59866C23.0279 5.46746 23.0184 5.29406 22.9167 5.17328C22.8151 5.05243 22.6459 5.01336 22.5014 5.07733Z" fill="#333333"/>
</svg>
