<svg width="18" height="18" viewBox="0 0 18 18" fill="none" xmlns="http://www.w3.org/2000/svg">
<g clip-path="url(#clip0)">
<path d="M17.2471 4.55423L15.7497 3.05679C15.5444 2.85131 15.2947 2.74854 15.0011 2.74854C14.7073 2.74854 14.4576 2.85131 14.2523 3.05679L7.02915 10.2909L3.79197 7.04265C3.58642 6.8371 3.33686 6.73443 3.04333 6.73443C2.74962 6.73443 2.50006 6.8371 2.2945 7.04265L0.797065 8.54013C0.591509 8.74564 0.48877 8.99528 0.48877 9.28896C0.48877 9.58241 0.591509 9.83227 0.797065 10.0378L4.78289 14.0235L6.28044 15.5209C6.48588 15.7266 6.73551 15.8292 7.02915 15.8292C7.32268 15.8292 7.57232 15.7263 7.77787 15.5209L9.27538 14.0235L17.2471 6.05178C17.4525 5.84622 17.5554 5.59662 17.5554 5.30295C17.5556 5.00942 17.4525 4.75978 17.2471 4.55423Z" fill="white"/>
</g>
<defs>
<clipPath id="clip0">
<rect width="17.0667" height="17.0667" fill="white" transform="translate(0.48877 0.755371)"/>
</clipPath>
</defs>
</svg>
