<svg width="25" height="24" viewBox="0 0 25 24" fill="none" xmlns="http://www.w3.org/2000/svg">
<path d="M17.361 3.00375L15.0268 3C12.4045 3 10.7098 4.73871 10.7098 7.42982V9.47227H8.36288C8.16008 9.47227 7.99585 9.63668 7.99585 9.83949V12.7988C7.99585 13.0016 8.16026 13.1658 8.36288 13.1658H10.7098V20.633C10.7098 20.8358 10.874 21 11.0768 21H14.1388C14.3417 21 14.5059 20.8356 14.5059 20.633V13.1658H17.25C17.4528 13.1658 17.617 13.0016 17.617 12.7988L17.6181 9.83949C17.6181 9.74211 17.5793 9.64886 17.5106 9.57994C17.4419 9.51103 17.3483 9.47227 17.2509 9.47227H14.5059V7.74086C14.5059 6.90868 14.7042 6.48622 15.7882 6.48622L17.3606 6.48566C17.5632 6.48566 17.7275 6.32124 17.7275 6.11863V3.37077C17.7275 3.16835 17.5634 3.00412 17.361 3.00375Z" fill="#333333"/>
</svg>
