<svg width="18" height="18" viewBox="0 0 18 18" fill="none" xmlns="http://www.w3.org/2000/svg">
<g clip-path="url(#clip0)">
<path d="M14.8667 9.17788C14.6592 8.97041 14.4075 8.86685 14.1111 8.86685H5.93337V5.31133C5.93337 4.52601 6.2112 3.85574 6.76679 3.30015C7.32242 2.74468 7.99273 2.46688 8.77797 2.46688C9.56314 2.46688 10.2336 2.74464 10.789 3.30015C11.3446 3.85574 11.6224 4.52605 11.6224 5.31133C11.6224 5.50386 11.6928 5.6705 11.8334 5.81123C11.9743 5.952 12.141 6.0224 12.3333 6.0224H13.0448C13.2372 6.0224 13.4039 5.952 13.5448 5.81123C13.6851 5.6705 13.7557 5.50386 13.7557 5.31133C13.7557 3.94081 13.2687 2.76881 12.2947 1.79466C11.3206 0.820472 10.1483 0.333496 8.77797 0.333496C7.40753 0.333496 6.23533 0.820472 5.26114 1.79462C4.28711 2.76865 3.8001 3.94077 3.8001 5.31129V8.86681H3.44458C3.14838 8.86681 2.89647 8.9706 2.68904 9.17784C2.48161 9.38508 2.37793 9.63707 2.37793 9.93339V16.3335C2.37793 16.6299 2.48165 16.8818 2.68904 17.0891C2.89647 17.2964 3.14838 17.4001 3.44458 17.4001H14.1111C14.4075 17.4001 14.6595 17.2964 14.8667 17.0891C15.074 16.8818 15.1778 16.6299 15.1778 16.3335V9.93342C15.178 9.63711 15.0742 9.38539 14.8667 9.17788Z" fill="white"/>
</g>
<defs>
<clipPath id="clip0">
<rect width="17.0667" height="17.0667" fill="white" transform="translate(0.244629 0.333496)"/>
</clipPath>
</defs>
</svg>
