<svg width="33" height="32" viewBox="0 0 33 32" fill="none" xmlns="http://www.w3.org/2000/svg">
<g clip-path="url(#clip0)">
<path d="M27.7496 16.5832C27.3606 16.1942 26.8885 16 26.3327 16H10.9996V9.33344C10.9996 7.86097 11.5205 6.6042 12.5622 5.56247C13.604 4.52096 14.8609 4.0001 16.3332 4.0001C17.8054 4.0001 19.0625 4.52089 20.1038 5.56247C21.1456 6.6042 21.6666 7.86104 21.6666 9.33344C21.6666 9.69443 21.7984 10.0069 22.0621 10.2708C22.3263 10.5347 22.6389 10.6667 22.9995 10.6667H24.3335C24.6943 10.6667 25.0068 10.5347 25.271 10.2708C25.5341 10.0069 25.6665 9.69443 25.6665 9.33344C25.6665 6.76371 24.7533 4.56621 22.9271 2.73968C21.1007 0.91308 18.9026 0 16.3332 0C13.7636 0 11.5658 0.91308 9.73915 2.73961C7.91285 4.56591 6.99969 6.76364 6.99969 9.33337V16H6.33311C5.77773 16 5.30539 16.1946 4.91646 16.5831C4.52752 16.9717 4.33313 17.4442 4.33313 17.9998V29.9999C4.33313 30.5558 4.5276 31.028 4.91646 31.4168C5.30539 31.8054 5.77773 31.9999 6.33311 31.9999H26.3327C26.8885 31.9999 27.361 31.8054 27.7496 31.4168C28.1382 31.028 28.3329 30.5558 28.3329 29.9999V17.9999C28.3332 17.4443 28.1387 16.9723 27.7496 16.5832Z" fill="url(#paint0_linear)"/>
</g>
<defs>
<linearGradient id="paint0_linear" x1="28.3329" y1="16.0003" x2="4.33313" y2="16.0003" gradientUnits="userSpaceOnUse">
<stop stop-color="#FF687C"/>
<stop offset="0.26" stop-color="#FF866A"/>
<stop offset="0.53" stop-color="#FE9E5D"/>
<stop offset="0.79" stop-color="#FEAC55"/>
<stop offset="1" stop-color="#FEB152"/>
</linearGradient>
<clipPath id="clip0">
<rect width="32" height="32" fill="white" transform="translate(0.33313)"/>
</clipPath>
</defs>
</svg>
