<svg width="320" height="332" viewBox="0 0 320 332" fill="none" xmlns="http://www.w3.org/2000/svg">
<path d="M0.000244141 0L0 303C109 360.5 257 324 320 266.5V0H0.000244141Z" fill="url(#paint0_linear)"/>
<mask id="mask0" mask-type="alpha" maskUnits="userSpaceOnUse" x="0" y="0" width="321" height="332">
<path d="M0.000244141 0L0 303C109 360.5 257 324 320 266.5V0H0.000244141Z" fill="url(#paint1_linear)"/>
</mask>
<g mask="url(#mask0)">
<path opacity="0.3" d="M42.0813 119.782C112.819 83.4858 193.245 141.933 229.541 212.67C265.837 283.407 244.259 339.648 173.522 375.944C102.785 412.241 16.0169 384.321 -20.2794 313.584C-56.5758 242.846 -28.6559 156.079 42.0813 119.782Z" fill="url(#paint2_linear)"/>
<path opacity="0.2" d="M24.2288 101.898C89.0543 68.6355 162.759 122.198 196.022 187.023C229.285 251.849 209.51 303.39 144.685 336.652C79.8591 369.915 0.342665 344.329 -32.9203 279.503C-66.1833 214.678 -40.5967 135.161 24.2288 101.898Z" fill="url(#paint3_linear)"/>
<ellipse opacity="0.3" cx="261.457" cy="6.52396" rx="36.9773" ry="41.1093" transform="rotate(-117.163 261.457 6.52396)" fill="url(#paint4_linear)"/>
<ellipse opacity="0.2" cx="286" cy="14.4582" rx="41.3606" ry="45.6929" transform="rotate(-99.6853 286 14.4582)" fill="url(#paint5_linear)"/>
</g>
<defs>
<linearGradient id="paint0_linear" x1="3.29991e-06" y1="303" x2="319.983" y2="-0.0177793" gradientUnits="userSpaceOnUse">
<stop stop-color="#A35ACA"/>
<stop offset="0.788886" stop-color="#F57276"/>
</linearGradient>
<linearGradient id="paint1_linear" x1="320" y1="169.122" x2="0" y2="169.122" gradientUnits="userSpaceOnUse">
<stop stop-color="#FF687C"/>
<stop offset="0.26" stop-color="#FF866A"/>
<stop offset="0.53" stop-color="#FE9E5D"/>
<stop offset="0.79" stop-color="#FEAC55"/>
<stop offset="1" stop-color="#FEB152"/>
</linearGradient>
<linearGradient id="paint2_linear" x1="7.82471" y1="344.837" x2="298.23" y2="71.7739" gradientUnits="userSpaceOnUse">
<stop offset="0.0125678" stop-color="#FEB052"/>
<stop offset="0.450544" stop-color="#FF687B"/>
</linearGradient>
<linearGradient id="paint3_linear" x1="-7.16489" y1="308.144" x2="258.97" y2="57.9025" gradientUnits="userSpaceOnUse">
<stop offset="0.0125678" stop-color="#FEB052"/>
<stop offset="0.450544" stop-color="#FF687B"/>
</linearGradient>
<linearGradient id="paint4_linear" x1="251.019" y1="-31.2956" x2="290.091" y2="82.3811" gradientUnits="userSpaceOnUse">
<stop offset="0.0125678" stop-color="#FEB052"/>
<stop offset="0.450544" stop-color="#FF687B"/>
</linearGradient>
<linearGradient id="paint5_linear" x1="274.325" y1="-27.5781" x2="317.538" y2="98.9411" gradientUnits="userSpaceOnUse">
<stop offset="0.0125678" stop-color="#FEB052"/>
<stop offset="0.450544" stop-color="#FF687B"/>
</linearGradient>
</defs>
</svg>
